<svg xmlns="http://www.w3.org/2000/svg" viewBox="0 0 1536 1024" role="img" width="1536" height="1024">
  <title>New START Treaty Signed in Prague — Retro Pixel Art Banner</title>

  <defs>
    <radialGradient id="crt" cx="50%" cy="50%" r="70%">
      <stop offset="0%" stop-color="#1a0a2e" />
      <stop offset="100%" stop-color="#050510" />
    </radialGradient>
    <filter id="glow">
      <feGaussianBlur stdDeviation="3" result="blur" />
      <feMerge><feMergeNode in="blur" /><feMergeNode in="SourceGraphic" /></feMerge>
    </filter>
    <filter id="strongglow">
      <feGaussianBlur stdDeviation="6" result="blur" />
      <feMerge><feMergeNode in="blur" /><feMergeNode in="SourceGraphic" /></feMerge>
    </filter>
    
    <pattern id="scanlines" x="0" y="0" width="1" height="4" patternUnits="userSpaceOnUse">
      <rect x="0" y="0" width="1536" height="2" fill="black" opacity="0.15" />
    </pattern>
  </defs>

  
  <rect width="1536" height="1024" fill="url(#crt)" />

  
  <g fill="#ffffff" opacity="0.6">
    <rect x="80" y="40" width="4" height="4" />
    <rect x="200" y="90" width="4" height="4" />
    <rect x="340" y="30" width="4" height="4" />
    <rect x="500" y="70" width="4" height="4" />
    <rect x="650" y="20" width="4" height="4" />
    <rect x="800" y="55" width="4" height="4" />
    <rect x="950" y="35" width="4" height="4" />
    <rect x="1100" y="80" width="4" height="4" />
    <rect x="1250" y="25" width="4" height="4" />
    <rect x="1400" y="60" width="4" height="4" />
    <rect x="140" y="150" width="4" height="4" />
    <rect x="420" y="130" width="4" height="4" />
    <rect x="700" y="110" width="4" height="4" />
    <rect x="1050" y="140" width="4" height="4" />
    <rect x="1350" y="120" width="4" height="4" />
    <rect x="60" y="200" width="4" height="4" />
    <rect x="300" y="220" width="4" height="4" />
    <rect x="1480" y="180" width="4" height="4" />
  </g>

  
  
  <g fill="#2a1a4a">
    <rect x="400" y="680" width="736" height="344" />
  </g>
  
  <g fill="#3d2a66">
    
    <rect x="420" y="580" width="60" height="100" />
    <rect x="430" y="560" width="40" height="24" />
    <rect x="440" y="540" width="20" height="24" />
    <rect x="444" y="520" width="12" height="24" />
    <rect x="448" y="490" width="4" height="32" />
    
    <rect x="438" y="590" width="8" height="8" fill="#5bf0ff" />
    <rect x="454" y="590" width="8" height="8" fill="#5bf0ff" />
    <rect x="438" y="610" width="8" height="8" fill="#5bf0ff" />
    <rect x="454" y="610" width="8" height="8" fill="#5bf0ff" />

    
    <rect x="700" y="500" width="136" height="180" />
    <rect x="712" y="480" width="112" height="24" />
    <rect x="724" y="460" width="88" height="24" />
    <rect x="736" y="440" width="64" height="24" />
    <rect x="748" y="420" width="40" height="24" />
    <rect x="756" y="390" width="24" height="32" />
    <rect x="762" y="360" width="12" height="32" />
    <rect x="765" y="320" width="6" height="42" />
    
    <rect x="720" y="520" width="16" height="24" fill="#5bf0ff" />
    <rect x="750" y="520" width="16" height="24" fill="#5bf0ff" />
    <rect x="780" y="520" width="16" height="24" fill="#5bf0ff" />
    <rect x="810" y="520" width="16" height="24" fill="#5bf0ff" />
    <rect x="720" y="560" width="16" height="24" fill="#5bf0ff" />
    <rect x="810" y="560" width="16" height="24" fill="#5bf0ff" />

    
    <rect x="1056" y="580" width="60" height="100" />
    <rect x="1066" y="560" width="40" height="24" />
    <rect x="1076" y="540" width="20" height="24" />
    <rect x="1080" y="520" width="12" height="24" />
    <rect x="1084" y="490" width="4" height="32" />
    
    <rect x="1070" y="590" width="8" height="8" fill="#5bf0ff" />
    <rect x="1086" y="590" width="8" height="8" fill="#5bf0ff" />
    <rect x="1070" y="610" width="8" height="8" fill="#5bf0ff" />
    <rect x="1086" y="610" width="8" height="8" fill="#5bf0ff" />

    
    <rect x="480" y="640" width="220" height="60" />
    <rect x="836" y="640" width="220" height="60" />
    
    <rect x="480" y="628" width="16" height="16" />
    <rect x="508" y="628" width="16" height="16" />
    <rect x="536" y="628" width="16" height="16" />
    <rect x="564" y="628" width="16" height="16" />
    <rect x="592" y="628" width="16" height="16" />
    <rect x="620" y="628" width="16" height="16" />
    <rect x="648" y="628" width="16" height="16" />
    <rect x="676" y="628" width="16" height="16" />
    
    <rect x="836" y="628" width="16" height="16" />
    <rect x="864" y="628" width="16" height="16" />
    <rect x="892" y="628" width="16" height="16" />
    <rect x="920" y="628" width="16" height="16" />
    <rect x="948" y="628" width="16" height="16" />
    <rect x="976" y="628" width="16" height="16" />
    <rect x="1004" y="628" width="16" height="16" />
    <rect x="1032" y="628" width="16" height="16" />
  </g>

  
  <rect x="0" y="700" width="1536" height="8" fill="#5bf0ff" opacity="0.3" />
  <rect x="0" y="704" width="1536" height="4" fill="#5bf0ff" opacity="0.15" />

  
  <g filter="url(#glow)">
    
    <rect x="90" y="300" width="8" height="380" fill="#aaaaaa" />
    
    <rect x="98" y="300" width="200" height="20" fill="#ff3333" />
    <rect x="98" y="320" width="200" height="20" fill="#ffffff" />
    <rect x="98" y="340" width="200" height="20" fill="#ff3333" />
    <rect x="98" y="360" width="200" height="20" fill="#ffffff" />
    <rect x="98" y="380" width="200" height="20" fill="#ff3333" />
    <rect x="98" y="400" width="200" height="20" fill="#ffffff" />
    <rect x="98" y="420" width="200" height="20" fill="#ff3333" />
    <rect x="98" y="440" width="200" height="20" fill="#ffffff" />
    <rect x="98" y="460" width="200" height="20" fill="#ff3333" />
    <rect x="98" y="480" width="200" height="20" fill="#ffffff" />
    <rect x="98" y="500" width="200" height="20" fill="#ff3333" />
    <rect x="98" y="520" width="200" height="20" fill="#ffffff" />
    <rect x="98" y="540" width="200" height="20" fill="#ff3333" />
    
    <rect x="98" y="300" width="88" height="140" fill="#1133cc" />
    
    <g fill="#ffffff">
      <rect x="106" y="308" width="4" height="4" /><rect x="122" y="308" width="4" height="4" /><rect x="138" y="308" width="4" height="4" /><rect x="154" y="308" width="4" height="4" /><rect x="170" y="308" width="4" height="4" />
      <rect x="114" y="318" width="4" height="4" /><rect x="130" y="318" width="4" height="4" /><rect x="146" y="318" width="4" height="4" /><rect x="162" y="318" width="4" height="4" />
      <rect x="106" y="328" width="4" height="4" /><rect x="122" y="328" width="4" height="4" /><rect x="138" y="328" width="4" height="4" /><rect x="154" y="328" width="4" height="4" /><rect x="170" y="328" width="4" height="4" />
      <rect x="114" y="338" width="4" height="4" /><rect x="130" y="338" width="4" height="4" /><rect x="146" y="338" width="4" height="4" /><rect x="162" y="338" width="4" height="4" />
      <rect x="106" y="348" width="4" height="4" /><rect x="122" y="348" width="4" height="4" /><rect x="138" y="348" width="4" height="4" /><rect x="154" y="348" width="4" height="4" /><rect x="170" y="348" width="4" height="4" />
      <rect x="114" y="358" width="4" height="4" /><rect x="130" y="358" width="4" height="4" /><rect x="146" y="358" width="4" height="4" /><rect x="162" y="358" width="4" height="4" />
      <rect x="106" y="368" width="4" height="4" /><rect x="122" y="368" width="4" height="4" /><rect x="138" y="368" width="4" height="4" /><rect x="154" y="368" width="4" height="4" /><rect x="170" y="368" width="4" height="4" />
    </g>
  </g>

  
  <g filter="url(#glow)">
    
    <rect x="1438" y="300" width="8" height="380" fill="#aaaaaa" />
    
    <rect x="1238" y="300" width="200" height="80" fill="#ffffff" />
    <rect x="1238" y="380" width="200" height="80" fill="#0033aa" />
    <rect x="1238" y="460" width="200" height="80" fill="#cc0000" />
  </g>

  
  <g filter="url(#glow)">
    
    <rect x="550" y="420" width="32" height="120" fill="#55ff55" />
    <rect x="554" y="400" width="24" height="24" fill="#55ff55" />
    <rect x="558" y="384" width="16" height="20" fill="#55ff55" />
    <rect x="562" y="368" width="8" height="18" fill="#ffff00" />
    
    <rect x="534" y="520" width="16" height="20" fill="#33cc33" />
    <rect x="582" y="520" width="16" height="20" fill="#33cc33" />
    
    <rect x="558" y="540" width="16" height="8" fill="#ff8800" />
    <rect x="562" y="548" width="8" height="8" fill="#ffff00" />
    
    <rect x="540" y="430" width="12" height="12" fill="#ff0000" opacity="0.9" />
    <rect x="580" y="430" width="12" height="12" fill="#ff0000" opacity="0.9" />
    <rect x="550" y="450" width="32" height="8" fill="#ff0000" opacity="0.9" />
    <rect x="548" y="430" width="8" height="32" fill="#ff0000" opacity="0.9" />
    <rect x="576" y="430" width="8" height="32" fill="#ff0000" opacity="0.9" />
  </g>

  
  <g filter="url(#glow)">
    <rect x="954" y="420" width="32" height="120" fill="#ff5555" />
    <rect x="958" y="400" width="24" height="24" fill="#ff5555" />
    <rect x="962" y="384" width="16" height="20" fill="#ff5555" />
    <rect x="966" y="368" width="8" height="18" fill="#ffff00" />
    
    <rect x="938" y="520" width="16" height="20" fill="#cc3333" />
    <rect x="986" y="520" width="16" height="20" fill="#cc3333" />
    
    <rect x="962" y="540" width="16" height="8" fill="#ff8800" />
    <rect x="966" y="548" width="8" height="8" fill="#ffff00" />
    
    <rect x="944" y="430" width="12" height="12" fill="#ff0000" opacity="0.9" />
    <rect x="984" y="430" width="12" height="12" fill="#ff0000" opacity="0.9" />
    <rect x="954" y="450" width="32" height="8" fill="#ff0000" opacity="0.9" />
    <rect x="952" y="430" width="8" height="32" fill="#ff0000" opacity="0.9" />
    <rect x="980" y="430" width="8" height="32" fill="#ff0000" opacity="0.9" />
  </g>

  
  <g filter="url(#strongglow)">
    
    <rect x="648" y="480" width="80" height="28" fill="#f5c87a" />
    <rect x="648" y="476" width="16" height="8" fill="#f5c87a" />
    <rect x="648" y="468" width="12" height="12" fill="#f5c87a" />
    <rect x="648" y="488" width="12" height="8" fill="#f5c87a" />
    <rect x="648" y="500" width="12" height="8" fill="#f5c87a" />
    
    <rect x="598" y="480" width="52" height="28" fill="#1133cc" />
    
    <rect x="808" y="480" width="80" height="28" fill="#f5c87a" />
    <rect x="872" y="476" width="16" height="8" fill="#f5c87a" />
    <rect x="876" y="468" width="12" height="12" fill="#f5c87a" />
    <rect x="876" y="488" width="12" height="8" fill="#f5c87a" />
    <rect x="876" y="500" width="12" height="8" fill="#f5c87a" />
    
    <rect x="886" y="480" width="52" height="28" fill="#0033aa" />
    
    <rect x="728" y="472" width="80" height="44" fill="#e5b86a" />
  </g>

  
  <g fill="#00ff88" filter="url(#glow)">
    
    <rect x="620" y="380" width="16" height="60" fill="#00ff88" />
    <rect x="608" y="420" width="40" height="16" fill="#00ff88" />
    <rect x="612" y="436" width="32" height="12" fill="#00ff88" />
    <rect x="616" y="448" width="24" height="12" fill="#00ff88" />
    <rect x="620" y="460" width="16" height="8" fill="#00ff88" />
    
    <rect x="900" y="380" width="16" height="60" fill="#00ff88" />
    <rect x="888" y="420" width="40" height="16" fill="#00ff88" />
    <rect x="892" y="436" width="32" height="12" fill="#00ff88" />
    <rect x="896" y="448" width="24" height="12" fill="#00ff88" />
    <rect x="900" y="460" width="16" height="8" fill="#00ff88" />
  </g>

  
  <g filter="url(#glow)">
    <rect x="708" y="590" width="120" height="160" fill="#ffffcc" />
    <rect x="712" y="594" width="112" height="4" fill="#ccccaa" />
    
    <rect x="716" y="604" width="88" height="4" fill="#888877" />
    <rect x="716" y="616" width="88" height="4" fill="#888877" />
    <rect x="716" y="628" width="88" height="4" fill="#888877" />
    <rect x="716" y="640" width="72" height="4" fill="#888877" />
    <rect x="716" y="652" width="88" height="4" fill="#888877" />
    <rect x="716" y="664" width="88" height="4" fill="#888877" />
    <rect x="716" y="676" width="56" height="4" fill="#888877" />
    
    <rect x="724" y="700" width="32" height="32" fill="#ffcc00" />
    <rect x="728" y="704" width="24" height="24" fill="#ff8800" />
    <rect x="732" y="708" width="16" height="16" fill="#ffcc00" />
    
    <rect x="736" y="712" width="8" height="8" fill="#ffffff" />
    <rect x="740" y="708" width="4" height="16" fill="#ffffff" />
    <rect x="736" y="712" width="12" height="4" fill="#ffffff" />
  </g>

  
  <g filter="url(#strongglow)">
    <rect x="340" y="750" width="200" height="60" fill="#000033" opacity="0.8" />
    <text x="440" y="792" font-family="monospace" font-size="28" fill="#00ff88" text-anchor="middle" font-weight="bold">▼ 1,550</text>
  </g>
  <g filter="url(#strongglow)">
    <rect x="996" y="750" width="200" height="60" fill="#000033" opacity="0.8" />
    <text x="1096" y="792" font-family="monospace" font-size="28" fill="#00ff88" text-anchor="middle" font-weight="bold">▼ 1,550</text>
  </g>

  
  <rect x="80" y="88" width="1376" height="220" fill="#000033" opacity="0.85" />
  <rect x="80" y="88" width="1376" height="8" fill="#5bf0ff" opacity="0.8" />
  <rect x="80" y="300" width="1376" height="8" fill="#5bf0ff" opacity="0.8" />
  <rect x="80" y="88" width="8" height="220" fill="#5bf0ff" opacity="0.8" />
  <rect x="1448" y="88" width="8" height="220" fill="#5bf0ff" opacity="0.8" />

  
  <rect x="80" y="88" width="24" height="24" fill="#5bf0ff" />
  <rect x="1432" y="88" width="24" height="24" fill="#5bf0ff" />
  <rect x="80" y="284" width="24" height="24" fill="#5bf0ff" />
  <rect x="1432" y="284" width="24" height="24" fill="#5bf0ff" />

  
  <text x="768" y="174" font-family="monospace" font-size="72" fill="#5bf0ff" text-anchor="middle" font-weight="bold" filter="url(#strongglow)" letter-spacing="4">NEW START TREATY</text>
  <text x="768" y="262" font-family="monospace" font-size="44" fill="#ffff55" text-anchor="middle" font-weight="bold" filter="url(#glow)" letter-spacing="2">SIGNED IN PRAGUE — APRIL 8, 2010</text>

  
  <rect x="0" y="870" width="1536" height="154" fill="#000033" opacity="0.9" />
  <rect x="0" y="870" width="1536" height="6" fill="#ff5555" opacity="0.9" />

  
  <text x="260" y="930" font-family="monospace" font-size="22" fill="#aaaaff" text-anchor="middle">USA</text>
  <text x="260" y="960" font-family="monospace" font-size="18" fill="#5bf0ff" text-anchor="middle">OBAMA + CLINTON</text>

  <text x="768" y="925" font-family="monospace" font-size="20" fill="#00ff88" text-anchor="middle">[ NUCLEAR WARHEADS REDUCED BY 30% ]</text>
  <text x="768" y="960" font-family="monospace" font-size="18" fill="#ffff55" text-anchor="middle">PRAGUE CASTLE  ✦  CZECH REPUBLIC</text>
  <text x="768" y="994" font-family="monospace" font-size="16" fill="#aaaaff" text-anchor="middle">VERIFICATION REGIME RESTORED  ✦  ON-SITE INSPECTIONS  ✦  DATA EXCHANGES</text>

  <text x="1276" y="930" font-family="monospace" font-size="22" fill="#aaaaff" text-anchor="middle">RUSSIA</text>
  <text x="1276" y="960" font-family="monospace" font-size="18" fill="#5bf0ff" text-anchor="middle">MEDVEDEV + LAVROV</text>

  
  <rect x="0" y="0" width="1536" height="1024" fill="url(#scanlines)" />

  
  <rect x="748" y="310" width="40" height="8" fill="#5bf0ff" opacity="0.7" />
</svg>